<svg xmlns="http://www.w3.org/2000/svg" viewBox="0 0 512 512">
  <defs>
    <linearGradient id="grad1" x1="0%" y1="0%" x2="100%" y2="100%">
      <stop offset="0%" style="stop-color:#4f46e5;stop-opacity:1" />
      <stop offset="100%" style="stop-color:#818cf8;stop-opacity:1" />
    </linearGradient>
  </defs>
  <rect width="512" height="512" rx="128" fill="url(#grad1)" />
  <path d="M363.3 148.7c-6.2-6.2-16.4-6.2-22.6 0L256 233.4l-84.7-84.7c-6.2-6.2-16.4-6.2-22.6 0-6.2 6.2-6.2 16.4 0 22.6L233.4 256l-84.7 84.7c-6.2 6.2-6.2 16.4 0 22.6 6.2 6.2 16.4 6.2 22.6 0L256 278.6l84.7 84.7c6.2 6.2 16.4 6.2 22.6 0 6.2-6.2 6.2-16.4 0-22.6L278.6 256l84.7-84.7c6.2-6.2 6.2-16.4 0-22.6z" fill="white" opacity="0.9" stroke="white" stroke-width="15" stroke-linecap="round"/>
  <circle cx="256" cy="256" r="30" fill="white" />
</svg>
